# xmcd
#
# Track frame offsets: 
#        150
#        13656
#        27945
#        48275
#        61397
#        68814
#        81278
#        93217
#        109903
#        133632
#        156274
#        174925
#        195815
#        209959
#
# Disc length: 2980 seconds
#
# Revision: 0
# Processed by: cddbd v1.5.1PL2 Copyright (c) Steve Scherf et al.
# Submitted via: ExactAudioCopy v0.95b1
#
DISCID=b90ba20e
DTITLE=Johnny Cash - Austin City Limits - 1987
DYEAR=1987
DGENRE=Country
TTITLE0=Ring of Fire
TTITLE1=Folsom Prison Blues
TTITLE2=Sunday Mornin' Comin' Down
TTITLE3=I Walk the Line
TTITLE4=The Wall
TTITLE5=Long Black Veil
TTITLE6=Big River
TTITLE7=I'll Go Somewhere and Sing My Songs Again
TTITLE8=Let Him Roll
TTITLE9=Ballad of Barbara
TTITLE10=Sam Stone
TTITLE11=(Ghost) Riders in the Sky
TTITLE12=Where Did We Go Right
TTITLE13=I Walk the Line
EXTD=
EXTT0=
EXTT1=
EXTT2=
EXTT3=
EXTT4=
EXTT5=
EXTT6=
EXTT7=
EXTT8=
EXTT9=
EXTT10=
EXTT11=
EXTT12=
EXTT13=
PLAYORDER=
